# xmcd
#
# Track frame offsets: 
#        150
#        10531
#        27545
#        43994
#        56054
#        69577
#        85040
#        96887
#        109488
#        126724
#        146827
#        163642
#        182310
#        192912
#
# Disc length: 2767 seconds
#
# Revision: 0
# Processed by: cddbd v1.5.2PL0 Copyright (c) Steve Scherf et al.
# Submitted via: ExactAudioCopy v1.0b4
#
DISCID=c90acd0e
DTITLE=Henry Townsend, Vernell Townsend  - St. Louis Blues (LP)
DYEAR=1981
DGENRE=Blues
TTITLE0=Henry Townsend - Henry Townsend - Baby Please Don't Go
TTITLE1=Henry Townsend - Henry Townsend - Baby Tell Me, What Is On You
TTITLE1=r Mind
TTITLE2=Henry Townsend - Henry Townsend - Good Bye, Baby
TTITLE3=Henry Townsend - Henry Townsend - Cairo
TTITLE4=Henry Townsend - Henry Townsend - I Hate To Leave
TTITLE5=Henry Townsend - Henry Townsend - What Tomorrow Brings
TTITLE6=Henry Townsend - Henry Townsend - As She's Gon, I'm Looking Ri
TTITLE6=ght In Her Heart
TTITLE7=Henry Townsend - Henry Townsend - Trying To Be Satisfied
TTITLE8=Henry Townsend - Henry Townsend - Going Back Home
TTITLE9=Henry Townsend - Henry Townsend - M and O
TTITLE10=Henry Townsend, Vernell Townsend - Going Down Slow
TTITLE11=Henry Townsend  - Henry Townsend -Early In The Morning
TTITLE12=Henry Townsend - Henry Townsend - Sloppy Drunk
TTITLE13=Henry Townsend - Henry Townsend - Tired Of Being Mistreated
EXTD=
EXTT0=
EXTT1=
EXTT2=
EXTT3=
EXTT4=
EXTT5=
EXTT6=
EXTT7=
EXTT8=
EXTT9=
EXTT10=
EXTT11=
EXTT12=
EXTT13=
PLAYORDER=
